TITLE ""
FILE "1Q_t_0710-0719.mp3" MP3
  TRACK 01 AUDIO
    TITLE "1Q_t_0710-0719_01"
    INDEX 01 00:00:00
  TRACK 02 AUDIO
    TITLE "1Q_t_0710-0719_02"
    INDEX 01 00:01:06
  TRACK 03 AUDIO
    TITLE "1Q_t_0710-0719_03"
    INDEX 01 00:01:14
  TRACK 04 AUDIO
    TITLE "1Q_t_0710-0719_04"
    INDEX 01 00:03:48
  TRACK 05 AUDIO
    TITLE "1Q_t_0710-0719_05"
    INDEX 01 00:03:54
  TRACK 06 AUDIO
    TITLE "1Q_t_0710-0719_06"
    INDEX 01 00:08:41
  TRACK 07 AUDIO
    TITLE "1Q_t_0710-0719_07"
    INDEX 01 00:09:09
  TRACK 08 AUDIO
    TITLE "1Q_t_0710-0719_08"
    INDEX 01 00:10:19
  TRACK 09 AUDIO
    TITLE "1Q_t_0710-0719_09"
    INDEX 01 00:10:28
  TRACK 10 AUDIO
    TITLE "1Q_t_0710-0719_10"
    INDEX 01 00:11:26
  TRACK 11 AUDIO
    TITLE "1Q_t_0710-0719_11"
    INDEX 01 00:11:34
  TRACK 12 AUDIO
    TITLE "1Q_t_0710-0719_12"
    INDEX 01 00:15:33
  TRACK 13 AUDIO
    TITLE "1Q_t_0710-0719_13"
    INDEX 01 00:16:03
  TRACK 14 AUDIO
    TITLE "1Q_t_0710-0719_14"
    INDEX 01 00:17:26
  TRACK 15 AUDIO
    TITLE "1Q_t_0710-0719_15"
    INDEX 01 00:17:36
  TRACK 16 AUDIO
    TITLE "1Q_t_0710-0719_16"
    INDEX 01 00:21:30
  TRACK 17 AUDIO
    TITLE "1Q_t_0710-0719_17"
    INDEX 01 00:21:38
  TRACK 18 AUDIO
    TITLE "1Q_t_0710-0719_18"
    INDEX 01 00:25:61
  TRACK 19 AUDIO
    TITLE "1Q_t_0710-0719_19"
    INDEX 01 00:26:31
  TRACK 20 AUDIO
    TITLE "1Q_t_0710-0719_20"
    INDEX 01 00:27:68
  TRACK 21 AUDIO
    TITLE "1Q_t_0710-0719_21"
    INDEX 01 00:27:74
  TRACK 22 AUDIO
    TITLE "1Q_t_0710-0719_22"
    INDEX 01 00:32:32
  TRACK 23 AUDIO
    TITLE "1Q_t_0710-0719_23"
    INDEX 01 00:32:38
  TRACK 24 AUDIO
    TITLE "1Q_t_0710-0719_24"
    INDEX 01 00:37:70
  TRACK 25 AUDIO
    TITLE "1Q_t_0710-0719_25"
    INDEX 01 00:38:42
  TRACK 26 AUDIO
    TITLE "1Q_t_0710-0719_26"
    INDEX 01 00:39:48
  TRACK 27 AUDIO
    TITLE "1Q_t_0710-0719_27"
    INDEX 01 00:39:55
  TRACK 28 AUDIO
    TITLE "1Q_t_0710-0719_28"
    INDEX 01 00:43:22
  TRACK 29 AUDIO
    TITLE "1Q_t_0710-0719_29"
    INDEX 01 00:43:28
  TRACK 30 AUDIO
    TITLE "1Q_t_0710-0719_30"
    INDEX 01 00:47:75
  TRACK 31 AUDIO
    TITLE "1Q_t_0710-0719_31"
    INDEX 01 00:48:49
  TRACK 32 AUDIO
    TITLE "1Q_t_0710-0719_32"
    INDEX 01 00:49:75
  TRACK 33 AUDIO
    TITLE "1Q_t_0710-0719_33"
    INDEX 01 00:50:10
  TRACK 34 AUDIO
    TITLE "1Q_t_0710-0719_34"
    INDEX 01 00:51:37
  TRACK 35 AUDIO
    TITLE "1Q_t_0710-0719_35"
    INDEX 01 00:51:45
  TRACK 36 AUDIO
    TITLE "1Q_t_0710-0719_36"
    INDEX 01 00:56:46
  TRACK 37 AUDIO
    TITLE "1Q_t_0710-0719_37"
    INDEX 01 00:57:18
  TRACK 38 AUDIO
    TITLE "1Q_t_0710-0719_38"
    INDEX 01 00:58:29
  TRACK 39 AUDIO
    TITLE "1Q_t_0710-0719_39"
    INDEX 01 00:58:39
  TRACK 40 AUDIO
    TITLE "1Q_t_0710-0719_40"
    INDEX 01 01:02:47
  TRACK 41 AUDIO
    TITLE "1Q_t_0710-0719_41"
    INDEX 01 01:02:54
  TRACK 42 AUDIO
    TITLE "1Q_t_0710-0719_42"
    INDEX 01 01:06:19
  TRACK 43 AUDIO
    TITLE "1Q_t_0710-0719_43"
    INDEX 01 01:06:64
  TRACK 44 AUDIO
    TITLE "1Q_t_0710-0719_44"
    INDEX 01 01:08:10
  TRACK 45 AUDIO
    TITLE "1Q_t_0710-0719_45"
    INDEX 01 01:08:18
  TRACK 46 AUDIO
    TITLE "1Q_t_0710-0719_46"
    INDEX 01 01:09:58
  TRACK 47 AUDIO
    TITLE "1Q_t_0710-0719_47"
    INDEX 01 01:09:66
  TRACK 48 AUDIO
    TITLE "1Q_t_0710-0719_48"
    INDEX 01 01:14:71
  TRACK 49 AUDIO
    TITLE "1Q_t_0710-0719_49"
    INDEX 01 01:15:51
  TRACK 50 AUDIO
    TITLE "1Q_t_0710-0719_50"
    INDEX 01 01:16:72
  TRACK 51 AUDIO
    TITLE "1Q_t_0710-0719_51"
    INDEX 01 01:17:05
  TRACK 52 AUDIO
    TITLE "1Q_t_0710-0719_52"
    INDEX 01 01:20:33
  TRACK 53 AUDIO
    TITLE "1Q_t_0710-0719_53"
    INDEX 01 01:20:39
  TRACK 54 AUDIO
    TITLE "1Q_t_0710-0719_54"
    INDEX 01 01:25:03
  TRACK 55 AUDIO
    TITLE "1Q_t_0710-0719_55"
    INDEX 01 01:25:50
  TRACK 56 AUDIO
    TITLE "1Q_t_0710-0719_56"
    INDEX 01 01:26:45
  TRACK 57 AUDIO
    TITLE "1Q_t_0710-0719_57"
    INDEX 01 01:26:55
  TRACK 58 AUDIO
    TITLE "1Q_t_0710-0719_58"
    INDEX 01 01:28:30
  TRACK 59 AUDIO
    TITLE "1Q_t_0710-0719_59"
    INDEX 01 01:28:36
  TRACK 60 AUDIO
    TITLE "1Q_t_0710-0719_60"
    INDEX 01 01:32:32
